<svg width="41" height="41" viewBox="0 0 41 41" fill="none" xmlns="http://www.w3.org/2000/svg">
<path d="M3.41663 5.125H13.6666C15.4789 5.125 17.217 5.84494 18.4985 7.12644C19.78 8.40794 20.5 10.146 20.5 11.9583V35.875C20.5 34.5158 19.96 33.2122 18.9989 32.2511C18.0378 31.29 16.7342 30.75 15.375 30.75H3.41663V5.125Z" stroke="#2F909E" stroke-width="2" stroke-linecap="round" stroke-linejoin="round"/>
<path d="M37.5833 5.125H27.3333C25.521 5.125 23.7829 5.84494 22.5014 7.12644C21.2199 8.40794 20.5 10.146 20.5 11.9583V35.875C20.5 34.5158 21.04 33.2122 22.0011 32.2511C22.9622 31.29 24.2658 30.75 25.625 30.75H37.5833V5.125Z" stroke="#2F909E" stroke-width="2" stroke-linecap="round" stroke-linejoin="round"/>
</svg>
