<svg width="40" height="40" viewBox="0 0 40 40" fill="none" xmlns="http://www.w3.org/2000/svg">
<path d="M38.3334 6.66663V16.6666H28.3334" stroke="#2F909E" stroke-width="2" stroke-linecap="round" stroke-linejoin="round"/>
<path d="M1.66663 33.3334V23.3334H11.6666" stroke="#2F909E" stroke-width="2" stroke-linecap="round" stroke-linejoin="round"/>
<path d="M5.84996 15C6.69524 12.6113 8.13185 10.4756 10.0257 8.79233C11.9196 7.10902 14.2091 5.93291 16.6804 5.37373C19.1518 4.81455 21.7246 4.89053 24.1586 5.59459C26.5927 6.29864 28.8087 7.60782 30.6 9.39996L38.3333 16.6666M1.66663 23.3333L9.39996 30.6C11.1912 32.3921 13.4072 33.7013 15.8413 34.4053C18.2754 35.1094 20.8481 35.1854 23.3195 34.6262C25.7909 34.067 28.0803 32.8909 29.9742 31.2076C31.8681 29.5243 33.3047 27.3887 34.15 25" stroke="#2F909E" stroke-width="2" stroke-linecap="round" stroke-linejoin="round"/>
</svg>
